<?xml version="1.0" standalone="no"?>
<!DOCTYPE svg PUBLIC "-//W3C//DTD SVG 20010904//EN"
 "http://www.w3.org/TR/2001/REC-SVG-20010904/DTD/svg10.dtd">
<svg version="1.0" xmlns="http://www.w3.org/2000/svg"
 width="1166.000000pt" height="223.000000pt" viewBox="0 0 1166.000000 223.000000"
 preserveAspectRatio="xMidYMid meet">

<g transform="translate(0.000000,223.000000) scale(0.100000,-0.100000)"
fill="#000000" stroke="none">
<path d="M2390 2200 c-330 -41 -605 -228 -707 -481 -56 -139 -71 -313 -39
-451 57 -246 242 -446 496 -539 144 -52 209 -63 395 -63 172 0 251 12 380 57
l40 14 86 -73 c47 -41 89 -74 93 -74 7 0 210 175 271 232 20 19 20 19 -10 45
-16 14 -49 43 -73 63 l-42 38 36 53 c82 120 124 258 124 404 0 219 -70 387
-224 533 -121 114 -268 189 -448 226 -97 20 -281 28 -378 16z m230 -411 c81
-12 175 -55 229 -104 22 -20 55 -66 72 -101 28 -57 32 -74 31 -147 0 -45 -6
-99 -14 -121 l-14 -39 -93 82 c-50 44 -95 81 -99 81 -4 0 -68 -61 -142 -136
l-135 -135 55 -50 55 -49 -50 0 c-107 0 -236 51 -306 121 -64 64 -93 138 -94
234 0 103 23 169 81 234 99 110 254 158 424 130z"/>
<path d="M0 1435 l0 -745 723 2 722 3 3 188 2 187 -495 0 -495 0 0 85 0 85
493 2 492 3 0 190 0 190 -492 3 -493 2 0 75 0 75 495 0 495 0 -2 198 -3 197
-722 3 -723 2 0 -745z"/>
<path d="M3640 1709 c0 -525 3 -552 67 -688 66 -139 208 -254 383 -309 127
-41 180 -47 370 -46 167 1 195 3 285 27 255 68 412 201 482 410 l28 82 3 498
3 497 -240 0 -240 0 -3 -457 c-3 -451 -3 -459 -25 -499 -53 -99 -153 -148
-303 -148 -150 0 -250 49 -303 148 -22 40 -22 48 -25 499 l-3 457 -239 0 -240
0 0 -471z"/>
<path d="M5971 2163 c-18 -35 -711 -1475 -711 -1479 0 -2 113 -4 250 -4 l251
0 56 120 56 120 372 0 372 0 56 -120 56 -120 262 0 c245 0 261 1 254 18 -3 9
-165 346 -358 749 l-352 732 -277 1 c-254 0 -278 -1 -287 -17z m375 -661 l92
-197 -186 -3 c-101 -1 -187 0 -190 3 -3 2 37 94 89 204 52 110 96 197 99 195
2 -3 46 -94 96 -202z"/>
<path d="M7020 1980 l0 -200 305 0 305 0 0 -550 0 -550 238 2 237 3 3 548 2
547 300 0 300 0 0 200 0 200 -845 0 -845 0 0 -200z"/>
<path d="M8892 1433 l3 -748 235 0 235 0 3 748 2 747 -240 0 -240 0 2 -747z"/>
<path d="M9520 2177 c0 -1 159 -338 353 -747 l353 -745 263 0 264 0 353 745
352 745 -251 3 c-138 1 -254 -1 -258 -5 -4 -5 -105 -217 -224 -473 -119 -256
-220 -468 -224 -473 -4 -4 -106 209 -227 473 l-219 479 -267 1 c-148 0 -268
-1 -268 -3z"/>
<path d="M0 270 l0 -190 720 0 720 0 0 190 0 190 -720 0 -720 0 0 -190z"/>
</g>
</svg>
