<?xml version="1.0" standalone="no"?>
<svg viewBox="0 0 532 142" fill="none" xmlns="http://www.w3.org/2000/svg"><path d="M189.218 101.288V0h-23.011v99.321c0 15.144-9.244 21.241-19.668 21.241-10.62 0-20.061-6.687-20.061-19.667h-22.814c0 27.534 19.864 41.105 42.875 41.105 22.421 0 42.679-11.801 42.679-40.712ZM205.015 90.47c0 28.126 20.454 51.137 47.399 51.137 14.161 0 25.961-7.277 31.468-15.144v13.177h21.635V41.302h-21.635v13.177c-5.507-7.867-17.307-15.144-31.468-15.144-26.945 0-47.399 23.011-47.399 51.136Zm80.637 0c0 17.702-11.8 31.469-29.304 31.469-17.505 0-29.305-13.767-29.305-31.468 0-17.7 11.8-31.468 29.305-31.468 17.504 0 29.304 13.767 29.304 31.468ZM328.926 139.64h21.634V91.258c0-21.045 11.014-32.255 25.371-32.255 12.587 0 20.454 9.44 20.454 24.978v55.659h21.635v-59.2c0-24.977-14.751-41.105-37.565-41.105-12.784 0-23.995 5.507-29.895 15.34V41.303h-21.634v98.338ZM432.918 90.47c0 29.896 21.438 51.137 51.332 51.137 20.651 0 35.992-8.851 44.842-22.815l-16.52-11.8c-5.114 8.653-14.358 14.947-28.125 14.947-16.324 0-29.305-10.62-30.288-26.748h77.294c.196-3.147.196-4.917.196-7.08 0-31.665-21.634-48.776-47.399-48.776-29.894 0-51.332 22.225-51.332 51.136Zm50.546-32.844c12.587 0 23.994 7.67 26.354 21.831h-54.676c2.95-14.554 15.734-21.831 28.322-21.831Z" fill="currentColor"></path><path d="M60.541 15.749c-4.662-6.161-13.68-14.716-27.86-14.716C14.46 1.033 0 17.515 0 33.813 0 50.116 8.12 62.88 24.366 77.567c16.19 14.644 21.75 16.118 36.103 23.836 14.502-7.718 20.067-9.193 36.252-23.836 16.246-14.687 24.361-27.451 24.361-43.754 0-16.298-14.456-32.78-32.68-32.78-14.176 0-23.199 8.555-27.861 14.716Z" fill="#FFC220"></path></svg>
